<svg xmlns="http://www.w3.org/2000/svg" viewBox="0 0 1440 320">
  <path fill="#000b76" fill-opacity="1" d="M0,160L30,160C60,160,120,160,180,181.3C240,203,300,245,360,234.7C420,224,480,160,540,144C600,128,660,160,720,181.3C780,203,840,213,900,218.7C960,224,1020,224,1080,218.7C1140,213,1200,203,1260,181.3C1320,160,1380,128,1410,112L1440,96L1440,320L1410,320C1380,320,1320,320,1260,320C1200,320,1140,320,1080,320C1020,320,960,320,900,320C840,320,780,320,720,320C660,320,600,320,540,320C480,320,420,320,360,320C300,320,240,320,180,320C120,320,60,320,30,320L0,320Z"></path>
</svg>